<svg width="493" height="1020" viewBox="0 0 493 1020" fill="none" xmlns="http://www.w3.org/2000/svg">
<g clip-path="url(#clip0_2046_2841)">
<path d="M0 20C0 8.9543 8.9543 0 20 0H473C484.046 0 493 8.95431 493 20V1000C493 1011.05 484.046 1020 473 1020H20C8.9543 1020 0 1011.05 0 1000V20Z" fill="#F5F1F7"/>
<path d="M-1682 164H3318" stroke="#535960" stroke-opacity="0.6" stroke-width="4" stroke-dasharray="8 8"/>
<path d="M-1691 664L3309 662.989" stroke="#535960" stroke-opacity="0.6" stroke-width="4" stroke-dasharray="8 8"/>
<path fill-rule="evenodd" clip-rule="evenodd" d="M274.898 462C296.491 462 311 473.368 311 490.287V529.713C311 546.632 296.491 558 274.898 558H219.102C197.509 558 183 546.632 183 529.713V490.287C183 473.368 197.509 462 219.102 462H274.898ZM274.898 468.698H219.102C202.599 468.698 191.93 477.168 191.93 490.287V529.713C191.93 542.832 202.599 551.302 219.102 551.302H274.898C291.407 551.302 302.07 542.832 302.07 529.713V490.287C302.07 477.168 291.407 468.698 274.898 468.698ZM247 490.252C249.465 490.252 251.465 491.752 251.465 493.601V506.607L268.828 506.607C271.293 506.607 273.294 508.108 273.294 509.956C273.294 511.805 271.293 513.305 268.828 513.305L251.465 513.304V526.317C251.465 528.165 249.465 529.666 247 529.666C244.535 529.666 242.535 528.165 242.535 526.317V513.304L225.172 513.305C222.701 513.305 220.706 511.805 220.706 509.956C220.706 508.108 222.701 506.607 225.172 506.607L242.535 506.607V493.601C242.535 491.752 244.535 490.252 247 490.252Z" fill="black"/>
</g>
<defs>
<clipPath id="clip0_2046_2841">
<path d="M0 20C0 8.9543 8.9543 0 20 0H473C484.046 0 493 8.95431 493 20V1000C493 1011.05 484.046 1020 473 1020H20C8.9543 1020 0 1011.05 0 1000V20Z" fill="white"/>
</clipPath>
</defs>
</svg>
